<svg width="21" height="25" viewBox="0 0 21 25" fill="none" xmlns="http://www.w3.org/2000/svg">
<path d="M20.2206 1.10293L17.0491 0.641113C16.9519 0.641113 16.8547 0.641116 16.8547 0.738099L15.512 2.46069C15.4354 2.57306 15.401 2.7088 15.4148 2.844C15.4148 2.94098 15.3176 3.13495 15.225 3.03797L14.1648 2.75164C13.9749 2.75164 13.7805 2.75163 13.7018 2.94098L9.37754 8.48283C9.28031 8.57982 9.18308 8.57982 8.99326 8.57982L7.35893 7.8132C7.28958 7.76974 7.20934 7.74669 7.12744 7.74669C7.04554 7.74669 6.9653 7.76974 6.89595 7.8132L5.98851 8.39509C5.91956 8.43962 5.83916 8.46331 5.75702 8.46331C5.67487 8.46331 5.59448 8.43962 5.52553 8.39509L5.14126 8.20575C5.0787 8.17755 5.01094 8.16262 4.94229 8.16192C4.87365 8.16122 4.8056 8.17477 4.74248 8.20169C4.67936 8.22862 4.62254 8.26833 4.57562 8.31832C4.5287 8.36831 4.49271 8.42747 4.46993 8.49207L4.17825 9.83135C4.14362 9.97357 4.15295 10.1229 4.20501 10.2597C4.25707 10.3966 4.34943 10.5145 4.46993 10.598L5.23848 11.0598L7.25245 12.3067L8.21545 12.8794C8.35064 12.9585 8.50774 12.9923 8.66361 12.9757C8.81948 12.959 8.96588 12.8929 9.08122 12.787L10.7109 11.3461C10.8513 11.2664 11.0136 11.234 11.1739 11.2538L11.6369 11.5401C11.8267 11.6371 12.0212 11.6371 12.0999 11.4431L12.961 10.6765C13.0203 10.617 13.0957 10.5761 13.178 10.5589C13.2602 10.5417 13.3458 10.5488 13.424 10.5795L14.6741 11.1568C14.7704 11.1883 14.8731 11.1959 14.9731 11.1791C15.0731 11.1622 15.1675 11.1212 15.2481 11.0598L15.8269 10.2932L20.1511 4.75132C20.3409 4.46037 20.2437 4.07706 19.8594 4.07706L18.952 3.87386C18.7575 3.87386 18.6649 3.58753 18.7575 3.41204L20.2946 1.59246C20.5076 1.3985 20.4104 1.10293 20.2206 1.10293Z" fill="white"/>
<path d="M5.80804 12.3252C5.71081 12.2282 5.61823 12.3252 5.61823 12.4222L6.08121 13.6645V13.9554L5.69692 15.581C5.69034 15.6337 5.69566 15.6872 5.71248 15.7375C5.7293 15.7879 5.7572 15.8338 5.79415 15.872L6.94698 16.731C7.00016 16.7774 7.06843 16.803 7.13911 16.803C7.20979 16.803 7.27807 16.7774 7.33125 16.731L8.58131 15.678C8.61869 15.6413 8.66395 15.6134 8.71367 15.5966C8.76338 15.5799 8.81627 15.5745 8.86835 15.581L10.2156 15.3917C10.3082 15.3917 10.3082 15.2947 10.2156 15.1977L5.80804 12.3252Z" fill="white"/>
<path d="M5.42358 16.4445C5.40732 16.4216 5.3858 16.403 5.36083 16.3901C5.33586 16.3772 5.30817 16.3705 5.28006 16.3705C5.25195 16.3705 5.22425 16.3772 5.19928 16.3901C5.17431 16.403 5.15279 16.4216 5.13653 16.4445L4.17352 16.9063C4.16096 16.9063 4.14853 16.9088 4.13698 16.9137C4.12544 16.9187 4.11503 16.9259 4.10637 16.935C4.09771 16.944 4.09097 16.9548 4.0866 16.9665C4.08223 16.9783 4.08031 16.9908 4.08093 17.0033L1.9651 22.1757H2.06233L2.52531 21.9863V22.0787L0.98822 24.5725C0.98822 24.6695 0.988212 24.6695 1.08081 24.6695L6.46065 19.2062C6.55788 19.2062 6.55789 19.1092 6.55789 19.0122L6.65511 17.5759C6.65511 17.479 6.65512 17.3866 6.55789 17.3866L5.42358 16.4445Z" fill="white"/>
</svg>
